<?xml version="1.0" standalone="no"?>
<!DOCTYPE svg PUBLIC "-//W3C//DTD SVG 20010904//EN"
 "http://www.w3.org/TR/2001/REC-SVG-20010904/DTD/svg10.dtd">
<svg version="1.0" xmlns="http://www.w3.org/2000/svg"
 width="1595.000000pt" height="1595.000000pt" viewBox="0 0 1595.000000 1595.000000"
 preserveAspectRatio="xMidYMid meet">
<metadata>
Created by potrace 1.14, written by Peter Selinger 2001-2017
</metadata>
<g transform="translate(0.000000,1595.000000) scale(0.100000,-0.100000)"
fill="#000000" stroke="none">
<path d="M6370 14879 c-267 -69 -468 -285 -514 -554 -15 -89 -16 -3191 -1
-3216 11 -18 95 -117 160 -187 l40 -43 0 1688 c-1 1805 -3 1733 48 1842 21 46
58 101 88 132 39 40 129 98 184 120 l60 24 4016 3 c3641 2 4020 1 4070 -14
165 -48 289 -162 340 -311 7 -21 15 -45 18 -53 3 -8 6 -1376 8 -3040 2 -3294
6 -3061 -54 -3188 -32 -68 -127 -166 -199 -204 -28 -15 -80 -35 -115 -44 -59
-15 -389 -16 -4054 -16 -3620 0 -3995 1 -4044 16 -170 50 -291 165 -342 324
-20 63 -22 88 -23 457 l-1 390 -25 6 c-35 10 -141 31 -165 33 -20 1 -20 -5
-19 -419 0 -302 4 -435 13 -475 7 -30 35 -101 62 -156 75 -154 181 -255 344
-330 42 -18 77 -33 80 -33 3 0 31 -5 63 -12 44 -9 965 -12 4072 -11 3982 0
4016 0 4090 20 232 61 407 218 487 436 44 119 42 -5 40 3216 l-2 3055 -27 80
c-37 108 -90 194 -168 274 -72 74 -101 95 -205 145 -147 72 217 66 -4237 65
-3940 0 -4014 -1 -4088 -20z"/>
<path d="M2948 14545 c-2 -2 -25 -6 -53 -9 -294 -38 -594 -231 -765 -492 -190
-289 -240 -636 -140 -967 87 -287 302 -539 579 -677 338 -170 754 -155 1079
37 285 168 491 467 547 793 19 106 9 373 -16 437 -5 13 -7 23 -4 23 2 0 -9 39
-25 86 -134 395 -474 686 -885 758 -67 11 -307 20 -317 11z"/>
<path d="M6489 14370 c-44 -13 -74 -38 -99 -82 l-25 -43 0 -1652 c0 -909 1
-1653 3 -1653 6 0 55 39 97 78 22 21 74 66 115 102 41 36 77 67 80 70 3 3 23
21 45 40 23 19 72 62 110 96 383 336 395 345 509 378 150 44 332 15 458 -72
62 -43 96 -79 301 -317 130 -150 177 -254 177 -390 0 -178 -63 -310 -210 -438
-37 -32 -78 -68 -91 -80 -13 -12 -55 -49 -94 -82 -38 -33 -72 -63 -75 -66 -3
-3 -63 -57 -135 -119 -71 -62 -159 -139 -195 -170 -36 -32 -123 -108 -195
-170 -71 -62 -132 -116 -135 -119 -3 -3 -39 -35 -80 -71 -41 -35 -77 -67 -80
-70 -3 -3 -23 -20 -45 -39 -22 -19 -69 -60 -105 -91 -251 -221 -304 -264 -375
-305 l-80 -45 1 -397 c1 -258 5 -407 12 -424 15 -36 50 -73 92 -94 33 -17 215
-18 3996 -18 2971 0 3969 3 3996 12 19 6 46 24 61 39 59 61 55 -167 54 3079 0
2787 -1 2985 -17 3020 -9 21 -34 52 -56 68 l-39 30 -3975 2 c-2186 1 -3987 -2
-4001 -7z"/>
<path d="M1582 11929 c-51 -10 -157 -58 -192 -88 -90 -76 -134 -136 -309 -421
-47 -77 -136 -220 -404 -650 -49 -80 -123 -199 -164 -265 -41 -66 -122 -196
-180 -290 -187 -300 -202 -326 -218 -383 -27 -90 -23 -188 9 -280 8 -23 44
-84 79 -135 52 -76 388 -605 422 -665 12 -20 182 -293 230 -367 30 -46 139
-220 333 -530 214 -342 207 -332 274 -367 55 -29 131 -34 188 -14 25 9 49 18
54 19 6 1 10 -83 11 -208 1 -210 1 -211 29 -268 29 -60 79 -103 145 -125 25
-9 338 -12 1185 -12 1060 1 1155 2 1197 18 77 29 131 85 150 156 8 29 11 494
11 1601 0 1257 3 1565 13 1585 34 65 140 123 208 114 40 -5 63 -22 279 -205
100 -86 280 -238 398 -338 118 -101 226 -192 240 -204 14 -12 55 -47 90 -77
36 -30 89 -78 119 -107 168 -163 423 -172 599 -21 79 68 165 142 176 153 6 6
45 39 86 75 41 36 80 70 86 75 6 6 39 35 74 65 34 30 68 60 74 65 6 6 45 39
86 75 41 36 80 70 86 75 6 6 40 35 74 65 35 30 107 93 160 140 53 47 128 112
165 145 38 33 92 80 120 105 28 25 77 68 109 95 32 28 64 55 70 60 200 177
222 207 230 301 8 90 -17 134 -179 319 -110 126 -174 189 -209 207 -54 28
-156 29 -206 3 -35 -18 -107 -70 -125 -91 -5 -7 -158 -141 -340 -299 -181
-158 -348 -304 -370 -324 -22 -20 -72 -63 -110 -96 -39 -33 -75 -64 -81 -70
-6 -5 -41 -37 -79 -70 -37 -33 -84 -75 -104 -92 l-36 -33 -29 33 c-35 39 -85
95 -147 168 -26 30 -97 113 -159 184 -62 72 -151 175 -198 230 -48 55 -89 102
-92 105 -5 5 -236 274 -255 298 -5 7 -24 27 -40 45 -17 17 -68 77 -115 132
-129 152 -141 166 -201 227 -39 39 -82 69 -140 97 -126 61 -192 71 -458 71
l-227 0 -172 -347 c-266 -540 -538 -1096 -545 -1113 -5 -15 -6 11 -10 495 -2
259 -3 272 -25 313 -48 92 -119 133 -231 137 -128 3 -206 -34 -259 -124 l-27
-46 -5 -392 -5 -392 -54 112 c-30 62 -167 339 -304 617 -136 278 -274 558
-305 622 l-57 118 -225 -1 c-124 -1 -244 -5 -268 -10z m-22 -1583 c35 -9 81
-36 111 -66 44 -45 43 -26 44 -837 0 -425 -3 -769 -7 -765 -4 4 -66 102 -139
217 -72 116 -197 315 -278 442 -80 128 -150 241 -156 251 -5 10 -25 41 -42 68
-18 28 -33 55 -33 61 0 8 264 439 351 572 16 25 29 48 29 52 0 16 62 18 120 5z
m1580 -871 c65 -34 85 -132 40 -195 -92 -129 -288 -14 -227 133 29 67 119 97
187 62z m10 -815 c105 -75 52 -240 -79 -243 -67 -1 -131 63 -131 133 0 107
123 172 210 110z"/>
<path d="M2759 11915 c-6 -119 24 -199 97 -263 62 -55 133 -76 243 -70 138 8
227 68 270 182 27 73 29 166 4 167 -10 0 -152 1 -316 2 -291 2 -297 2 -298
-18z"/>
<path d="M2355 6209 c-373 -28 -704 -244 -887 -579 -53 -98 -99 -237 -115
-350 -9 -68 -10 -248 -1 -315 54 -407 350 -761 743 -889 44 -14 94 -28 110
-31 123 -21 167 -25 272 -21 65 2 129 7 143 10 14 3 41 9 60 12 60 11 202 65
270 101 107 59 177 110 259 191 181 181 292 404 318 647 11 103 6 264 -11 340
-22 98 -31 129 -62 204 -34 81 -104 206 -149 261 -48 61 -185 190 -242 228
-107 72 -275 148 -374 167 -121 25 -227 32 -334 24z"/>
<path d="M7850 6203 c-345 -43 -632 -233 -816 -538 -61 -101 -122 -279 -139
-405 -11 -89 -5 -279 11 -350 3 -14 8 -36 11 -50 10 -56 57 -179 94 -249 164
-308 440 -509 789 -575 74 -14 309 -15 375 -1 212 43 421 149 561 284 98 94
205 243 250 350 62 146 85 252 89 416 7 251 -47 440 -183 644 -180 268 -493
454 -801 477 -47 3 -97 7 -111 8 -14 1 -72 -4 -130 -11z"/>
<path d="M13445 6209 c-172 -16 -288 -50 -433 -126 -115 -60 -282 -200 -339
-283 -9 -14 -20 -27 -24 -30 -3 -3 -22 -30 -41 -60 -144 -226 -200 -485 -162
-750 34 -247 155 -477 339 -647 77 -71 241 -183 268 -183 7 0 17 -4 23 -10 16
-16 123 -51 230 -75 82 -18 127 -22 235 -20 151 2 190 8 303 41 176 53 361
167 486 300 134 144 246 359 275 529 4 22 9 51 12 65 2 14 6 73 7 132 9 321
-123 627 -365 843 -40 36 -137 108 -159 118 -8 4 -35 19 -60 33 -78 45 -219
95 -303 108 -128 20 -199 24 -292 15z"/>
<path d="M905 3685 c-38 -8 -83 -17 -100 -20 -82 -17 -253 -100 -345 -168 -83
-61 -204 -188 -255 -266 -25 -38 -45 -73 -45 -77 0 -4 -6 -15 -14 -23 -30 -35
-91 -221 -111 -336 -9 -55 -14 -295 -30 -1402 l-5 -343 2431 0 2430 0 -4 853
c-2 468 -7 868 -11 887 -54 261 -144 432 -316 602 -155 151 -340 245 -560 284
-124 22 -2958 30 -3065 9z"/>
<path d="M6510 3696 c-3 -2 -30 -7 -60 -11 -30 -3 -100 -21 -155 -40 -397
-132 -684 -495 -720 -910 -3 -38 -8 -196 -10 -350 -4 -280 -17 -1171 -19
-1275 l-1 -55 2430 -3 2430 -2 -1 802 c0 688 -4 891 -18 960 -2 7 -6 31 -10
53 -5 22 -19 71 -32 109 -138 390 -470 657 -884 711 -53 7 -2944 18 -2950 11z"/>
<path d="M11987 3684 c-214 -39 -403 -139 -559 -296 -137 -138 -226 -291 -273
-473 -40 -153 -40 -142 -50 -880 -3 -231 -8 -547 -10 -702 l-5 -283 2430 0
2431 0 -2 818 c0 449 -5 849 -10 887 -32 236 -120 426 -277 596 -154 167 -392
296 -597 325 -27 3 -59 8 -70 10 -11 3 -675 6 -1475 9 -1234 3 -1467 2 -1533
-11z"/>
</g>
</svg>
